<?xml version="1.0" standalone="no"?>
<svg xmlns="http://www.w3.org/2000/svg" viewBox="0 0 83.742 96.696" width="83.742" height="96.696"><polygon fill="none" stroke="#ead017" stroke-width="3" points="82.242,24.924 82.242,71.77199999999999 41.871,95.196 1.5,71.77199999999999 1.5,24.924 41.871,1.5"></polygon><g fill="#000000" color="#000000" transform="translate(19.871000000000002 22.5) scale(0.44)"><svg width="100.0" height="54.0" x="0.0" y="0.0" viewBox="0 0 100 54"><path d="M91.117,7H75V0H0v44h12.141C12.053,44.487,12,44.987,12,45.5c0,4.694,3.806,8.5,8.5,8.5s8.5-3.806,8.5-8.5  c0-0.513-0.053-1.013-0.141-1.5H33v5h39v-5h4.141C76.053,44.487,76,44.987,76,45.5c0,4.694,3.806,8.5,8.5,8.5s8.5-3.806,8.5-8.5  c0-0.513-0.053-1.013-0.141-1.5H100V27v-5.566L91.117,7z M75,22V11h13.883l6.769,11H75z"></path></svg></g><path fill="#000000" fill-rule="nonzero" d="M8.96 0Q12.66 0 15.04 1.50Q17.42 3.00 17.47 5.94L17.47 5.94L17.47 6.27L11.68 6.27L11.68 6.16Q11.68 5.32 11.06 4.76Q10.44 4.20 9.18 4.20L9.18 4.20Q7.95 4.20 7.29 4.56Q6.64 4.93 6.64 5.46L6.64 5.46Q6.64 6.22 7.53 6.58Q8.43 6.94 10.42 7.34L10.42 7.34Q12.74 7.81 14.24 8.33Q15.74 8.85 16.86 10.02Q17.98 11.20 18.00 13.22L18.00 13.22Q18.00 16.63 15.69 18.28Q13.38 19.94 9.52 19.94L9.52 19.94Q5.01 19.94 2.51 18.42Q0 16.91 0 13.08L0 13.08L5.85 13.08Q5.85 14.53 6.61 15.02Q7.36 15.51 8.96 15.51L8.96 15.51Q10.14 15.51 10.91 15.26Q11.68 15.01 11.68 14.22L11.68 14.22Q11.68 13.52 10.82 13.17Q9.97 12.82 8.04 12.43L8.04 12.43Q5.68 11.93 4.14 11.38Q2.60 10.84 1.46 9.58Q0.31 8.32 0.31 6.16L0.31 6.16Q0.31 3.00 2.76 1.50Q5.21 0 8.96 0L8.96 0Z" transform="translate(32.869, 54.261)"></path></svg>