<?xml version="1.0" standalone="no"?>
<svg xmlns="http://www.w3.org/2000/svg" viewBox="0 0 157 23.157" width="157" height="23.157"><path fill="#ffffff" fill-rule="nonzero" d="M11.77 3.08L11.77 6.26L10.02 6.26L9.59 3.82Q9.06 3.38 8.18 3.08Q7.30 2.79 6.14 2.79L6.14 2.79Q4.30 2.79 3.32 3.57Q2.33 4.35 2.33 5.60L2.33 5.60Q2.33 6.71 3.33 7.46Q4.34 8.20 6.57 8.77L6.57 8.77Q9.27 9.43 10.67 10.73Q12.07 12.04 12.07 13.96L12.07 13.96Q12.07 16.02 10.39 17.27Q8.71 18.53 5.99 18.53L5.99 18.53Q4.02 18.53 2.49 17.88Q0.96 17.24 0 16.20L0 16.20L0 13.02L1.73 13.02L2.18 15.47Q2.85 16.02 3.77 16.37Q4.70 16.72 5.99 16.72L5.99 16.72Q7.73 16.72 8.75 15.98Q9.76 15.25 9.76 13.98L9.76 13.98Q9.76 12.81 8.88 12.02Q8.00 11.23 5.78 10.69L5.78 10.69Q3.07 10.04 1.55 8.79Q0.02 7.54 0.02 5.64L0.02 5.64Q0.02 3.63 1.72 2.30Q3.42 0.97 6.14 0.97L6.14 0.97Q7.93 0.97 9.40 1.59Q10.88 2.20 11.77 3.08L11.77 3.08ZM13.92 18.28L13.92 16.80L15.83 16.48L15.83 1.82L13.92 1.49L13.92 0L18.14 0L18.14 7.29Q18.80 6.38 19.75 5.87Q20.70 5.37 21.86 5.37L21.86 5.37Q23.89 5.37 25.02 6.59Q26.14 7.80 26.14 10.34L26.14 10.34L26.14 16.48L28.05 16.80L28.05 18.28L21.93 18.28L21.93 16.80L23.84 16.48L23.84 10.31Q23.84 8.74 23.16 7.99Q22.49 7.24 21.15 7.24L21.15 7.24Q20.20 7.24 19.42 7.69Q18.64 8.14 18.14 8.92L18.14 8.92L18.14 16.48L20.05 16.80L20.05 18.28L13.92 18.28ZM29.73 18.28L29.73 16.80L31.64 16.48L31.64 7.42L29.73 7.09L29.73 5.60L33.95 5.60L33.95 16.48L35.86 16.80L35.86 18.28L29.73 18.28ZM33.95 0L33.95 2.36L31.64 2.36L31.64 0L33.95 0ZM37.34 23.16L37.34 21.67L39.25 21.34L39.25 7.42L37.34 7.09L37.34 5.60L41.23 5.60L41.44 7.15Q42.07 6.28 42.98 5.82Q43.89 5.37 45.08 5.37L45.08 5.37Q47.44 5.37 48.74 7.24Q50.05 9.11 50.05 12.18L50.05 12.18L50.05 12.42Q50.05 15.16 48.74 16.85Q47.43 18.53 45.12 18.53L45.12 18.53Q43.95 18.53 43.06 18.13Q42.18 17.74 41.55 16.97L41.55 16.97L41.55 21.34L43.46 21.67L43.46 23.16L37.34 23.16ZM47.73 12.42L47.73 12.18Q47.73 10.01 46.89 8.63Q46.04 7.24 44.38 7.24L44.38 7.24Q43.39 7.24 42.69 7.69Q41.99 8.13 41.55 8.91L41.55 8.91L41.55 15.08Q41.99 15.87 42.69 16.29Q43.38 16.72 44.40 16.72L44.40 16.72Q46.04 16.72 46.89 15.53Q47.73 14.33 47.73 12.42L47.73 12.42ZM51.87 23.16L51.87 21.67L53.78 21.34L53.78 7.42L51.87 7.09L51.87 5.60L55.76 5.60L55.97 7.15Q56.60 6.28 57.51 5.82Q58.42 5.37 59.61 5.37L59.61 5.37Q61.97 5.37 63.28 7.24Q64.58 9.11 64.58 12.18L64.58 12.18L64.58 12.42Q64.58 15.16 63.27 16.85Q61.96 18.53 59.65 18.53L59.65 18.53Q58.48 18.53 57.59 18.13Q56.71 17.74 56.09 16.97L56.09 16.97L56.09 21.34L58.00 21.67L58.00 23.16L51.87 23.16ZM62.26 12.42L62.26 12.18Q62.26 10.01 61.42 8.63Q60.57 7.24 58.91 7.24L58.91 7.24Q57.93 7.24 57.22 7.69Q56.52 8.13 56.09 8.91L56.09 8.91L56.09 15.08Q56.52 15.87 57.22 16.29Q57.91 16.72 58.93 16.72L58.93 16.72Q60.57 16.72 61.42 15.53Q62.26 14.33 62.26 12.42L62.26 12.42ZM79.70 18.28L66.47 18.28L66.47 16.80L68.38 16.48L68.38 3.04L66.47 2.71L66.47 1.22L79.57 1.22L79.57 5.32L77.59 5.32L77.40 3.04L70.69 3.04L70.69 8.55L77.21 8.55L77.21 10.37L70.69 10.37L70.69 16.48L77.54 16.48L77.73 14.19L79.70 14.19L79.70 18.28ZM94.13 3.08L94.13 6.26L92.38 6.26L91.95 3.82Q91.42 3.38 90.54 3.08Q89.66 2.79 88.50 2.79L88.50 2.79Q86.66 2.79 85.68 3.57Q84.69 4.35 84.69 5.60L84.69 5.60Q84.69 6.71 85.69 7.46Q86.70 8.20 88.93 8.77L88.93 8.77Q91.63 9.43 93.03 10.73Q94.43 12.04 94.43 13.96L94.43 13.96Q94.43 16.02 92.75 17.27Q91.07 18.53 88.35 18.53L88.35 18.53Q86.38 18.53 84.85 17.88Q83.32 17.24 82.36 16.20L82.36 16.20L82.36 13.02L84.09 13.02L84.54 15.47Q85.21 16.02 86.13 16.37Q87.06 16.72 88.35 16.72L88.35 16.72Q90.09 16.72 91.11 15.98Q92.12 15.25 92.12 13.98L92.12 13.98Q92.12 12.81 91.24 12.02Q90.36 11.23 88.14 10.69L88.14 10.69Q85.43 10.04 83.91 8.79Q82.38 7.54 82.38 5.64L82.38 5.64Q82.38 3.63 84.08 2.30Q85.78 0.97 88.50 0.97L88.50 0.97Q90.29 0.97 91.76 1.59Q93.23 2.20 94.13 3.08L94.13 3.08ZM98.30 1.22L104.23 1.22Q106.96 1.22 108.47 2.63Q109.99 4.03 109.99 6.33L109.99 6.33Q109.99 8.65 108.47 10.04Q106.96 11.44 104.23 11.44L104.23 11.44L100.61 11.44L100.61 16.48L102.52 16.80L102.52 18.28L96.39 18.28L96.39 16.80L98.30 16.48L98.30 3.04L96.39 2.71L96.39 1.22L98.30 1.22ZM100.61 3.04L100.61 9.63L104.23 9.63Q105.96 9.63 106.82 8.70Q107.68 7.77 107.68 6.35L107.68 6.35Q107.68 4.93 106.82 3.98Q105.96 3.04 104.23 3.04L104.23 3.04L100.61 3.04Z" transform="translate(0, 0)"></path><line x1="118.9921875" y1="2%" x2="118.9921875" y2="98%" stroke="#ffffff" stroke-linecap="round"></line><g fill="#ead017" color="#ead017" transform="translate(127.9921875 3.749) scale(0.29)"><svg width="100.0" height="54.0" x="0.0" y="0.0" viewBox="0 0 100 54"><path d="M91.117,7H75V0H0v44h12.141C12.053,44.487,12,44.987,12,45.5c0,4.694,3.806,8.5,8.5,8.5s8.5-3.806,8.5-8.5  c0-0.513-0.053-1.013-0.141-1.5H33v5h39v-5h4.141C76.053,44.487,76,44.987,76,45.5c0,4.694,3.806,8.5,8.5,8.5s8.5-3.806,8.5-8.5  c0-0.513-0.053-1.013-0.141-1.5H100V27v-5.566L91.117,7z M75,22V11h13.883l6.769,11H75z"></path></svg></g></svg>